<svg width="12" height="15" viewBox="0 0 12 14" fill="none" xmlns="http://www.w3.org/2000/svg">
<path fill-rule="evenodd" clip-rule="evenodd" d="M5.99999 4.16666C4.61928 4.16666 3.49999 5.28594 3.49999 6.66666C3.49999 8.04737 4.61928 9.16666 5.99999 9.16666C7.3807 9.16666 8.49999 8.04737 8.49999 6.66666C8.49999 5.28594 7.3807 4.16666 5.99999 4.16666ZM4.49999 6.66666C4.49999 5.83823 5.17156 5.16666 5.99999 5.16666C6.82842 5.16666 7.49999 5.83823 7.49999 6.66666C7.49999 7.49508 6.82842 8.16666 5.99999 8.16666C5.17156 8.16666 4.49999 7.49508 4.49999 6.66666Z" fill="white"/>
<path fill-rule="evenodd" clip-rule="evenodd" d="M5.99999 0.166656C2.74443 0.166656 0.166656 2.99517 0.166656 6.40579C0.166656 7.4996 0.71006 8.78762 1.39375 9.99634C2.08851 11.2246 2.97524 12.4508 3.75268 13.4422L3.77861 13.4753C4.15808 13.9592 4.48135 14.3715 4.79482 14.6562C5.13682 14.9669 5.51395 15.1703 5.99999 15.1703C6.48603 15.1703 6.86316 14.9669 7.20516 14.6562C7.51864 14.3715 7.8419 13.9592 8.22138 13.4752L8.2473 13.4422C9.02474 12.4508 9.91147 11.2246 10.6062 9.99634C11.2899 8.78762 11.8333 7.4996 11.8333 6.40579C11.8333 2.99517 9.25555 0.166656 5.99999 0.166656ZM1.16666 6.40579C1.16666 3.47713 3.36451 1.16666 5.99999 1.16666C8.63547 1.16666 10.8333 3.47713 10.8333 6.40579C10.8333 7.22345 10.4069 8.31757 9.73582 9.50401C9.0758 10.6709 8.2228 11.8529 7.4604 12.8251C7.04776 13.3513 6.77607 13.695 6.53278 13.916C6.31089 14.1176 6.16277 14.1703 5.99999 14.1703C5.83721 14.1703 5.68909 14.1176 5.4672 13.916C5.22391 13.695 4.95222 13.3513 4.53958 12.8251C3.77718 11.8529 2.92418 10.6709 2.26416 9.50401C1.59307 8.31757 1.16666 7.22345 1.16666 6.40579Z" fill="white"/>
</svg>
