<svg width="14" height="12" viewBox="0 0 14 13" fill="none" xmlns="http://www.w3.org/2000/svg">
<path fill-rule="evenodd" clip-rule="evenodd" d="M4.40789 0.983366C3.7065 0.338878 2.62839 0.338878 1.927 0.983366C1.89828 1.00976 1.86761 1.04043 1.82779 1.08026L1.22946 1.67859C0.627387 2.28067 0.374641 3.14861 0.55935 3.9798C1.60733 8.69571 5.29035 12.3787 10.0063 13.4267C10.8374 13.6114 11.7054 13.3587 12.3075 12.7566L12.9057 12.1583C12.9456 12.1185 12.9763 12.0878 13.0027 12.0591C13.6472 11.3577 13.6472 10.2796 13.0027 9.57817C12.9763 9.54943 12.9456 9.51876 12.9057 9.47891L11.9262 8.4994C11.2462 7.81933 10.2191 7.62483 9.33751 8.00914C8.83277 8.22915 8.2448 8.1178 7.85547 7.72846L6.2576 6.13059C5.86826 5.74125 5.75691 5.15329 5.97692 4.64855C6.36123 3.76691 6.16673 2.73989 5.48666 2.05982L4.50711 1.08027C4.46728 1.04044 4.43662 1.00976 4.40789 0.983366ZM2.60361 1.71971C2.92242 1.42676 3.41247 1.42676 3.73128 1.71971C3.74229 1.72982 3.75671 1.74409 3.80742 1.7948L4.77955 2.76693C5.16889 3.15627 5.28024 3.74423 5.06023 4.24897C4.67592 5.13061 4.87042 6.15763 5.55049 6.8377L7.14836 8.43557C7.82843 9.11564 8.85545 9.31014 9.73709 8.92583C10.2418 8.70582 10.8298 8.81717 11.2191 9.20651L12.1913 10.1786C12.242 10.2293 12.2562 10.2438 12.2663 10.2548C12.5593 10.5736 12.5593 11.0636 12.2663 11.3825C12.2562 11.3935 12.242 11.4079 12.1913 11.4586L11.6004 12.0495C11.24 12.4098 10.7206 12.5611 10.2232 12.4505C5.88631 11.4868 2.49929 8.09975 1.53554 3.76287C1.425 3.26544 1.57625 2.74601 1.93657 2.3857L2.52746 1.7948C2.57818 1.74409 2.5926 1.72982 2.60361 1.71971Z" fill="#FAFAFA"/>
</svg>
