<svg width="14" height="13" viewBox="0 0 14 13" fill="none" xmlns="http://www.w3.org/2000/svg">
<path fill-rule="evenodd" clip-rule="evenodd" d="M9.63561 1.02081C9.12227 0.98144 8.48909 0.981443 7.68356 0.981445H6.55946C5.75393 0.981443 5.12075 0.98144 4.6074 1.02081C4.08344 1.061 3.64695 1.14417 3.24125 1.33015C2.57096 1.63743 2.00352 2.13151 1.60695 2.75315C1.50342 2.91545 1.41766 3.08658 1.3445 3.27116C1.09561 3.89913 0.98054 4.72797 0.813104 5.93404L0.798941 6.03603C0.656338 7.06276 0.544858 7.86539 0.510999 8.5119C0.476621 9.16831 0.518209 9.71532 0.715676 10.2175C1.03842 11.0383 1.63435 11.7227 2.40296 12.1553C2.87322 12.42 3.40931 12.5365 4.06421 12.5927C4.70923 12.6481 5.51956 12.6481 6.55613 12.6481H7.68688C8.72345 12.6481 9.53379 12.6481 10.1788 12.5927C10.8337 12.5365 11.3698 12.42 11.8401 12.1553C12.6087 11.7227 13.2046 11.0383 13.5273 10.2175C13.7248 9.71532 13.7664 9.16831 13.732 8.5119C13.6982 7.86537 13.5867 7.06271 13.4441 6.03595L13.4278 5.91891C13.2504 4.64093 13.1316 3.78511 12.8423 3.13754C12.782 3.00278 12.714 2.87534 12.6361 2.75315C12.2395 2.13151 11.6721 1.63743 11.0018 1.33015C10.5961 1.14417 10.1596 1.061 9.63561 1.02081ZM3.65797 2.23918C3.91372 2.12195 4.21946 2.0535 4.68388 2.01788C5.15453 1.98179 5.74945 1.98145 6.58011 1.98145H7.6629C8.49356 1.98145 9.08848 1.98179 9.55914 2.01788C10.0236 2.0535 10.3293 2.12195 10.585 2.23918C11.0665 2.45989 11.4762 2.81099 11.7679 3.2523L11.4011 3.61909C10.28 4.7402 9.47399 5.54471 8.77878 6.07513C8.09511 6.59676 7.57769 6.80598 7.04062 6.80598C6.50354 6.80598 5.98612 6.59676 5.30245 6.07513C4.60724 5.54471 3.80123 4.7402 2.68012 3.61909L2.41285 3.35182C2.42494 3.33112 2.43732 3.31086 2.45001 3.29097C2.74313 2.83149 3.16254 2.4663 3.65797 2.23918ZM12.1543 4.28008C12.2506 4.72512 12.3341 5.31352 12.4503 6.14986C12.5969 7.2054 12.702 7.96561 12.7334 8.5642C12.7645 9.15785 12.7189 9.54076 12.5967 9.85159C12.3581 10.4583 11.9177 10.9641 11.3496 11.2839C11.0585 11.4477 10.6855 11.5455 10.0932 11.5964C9.49602 11.6477 8.72857 11.6481 7.6629 11.6481H6.58011C5.51445 11.6481 4.747 11.6477 4.14979 11.5964C3.5575 11.5455 3.1845 11.4477 2.89344 11.2839C2.32534 10.9641 1.88487 10.4583 1.64632 9.85159C1.5241 9.54076 1.47854 9.15785 1.50963 8.5642C1.54098 7.96561 1.64613 7.2054 1.79273 6.14987C1.89742 5.39611 1.9754 4.84327 2.06088 4.41406C3.12011 5.47324 3.95515 6.305 4.69587 6.87016C5.46849 7.45965 6.19698 7.80598 7.04062 7.80598C7.88425 7.80598 8.61274 7.45965 9.38536 6.87016C10.1402 6.29423 10.993 5.44144 12.0812 4.35325L12.1543 4.28008Z" fill="white"/>
</svg>
