<svg width="30" height="30" viewBox="0 0 34 34" fill="none" xmlns="http://www.w3.org/2000/svg">
<circle cx="17" cy="16.8889" r="12.375" stroke="#E0E0E0" stroke-width="8.25"/>
<mask id="path-2-inside-1_25_5520" fill="white">
<path d="M33.5 16.8889C33.5 14.0925 32.7892 11.3419 31.4345 8.89547C30.0797 6.44907 28.1254 4.38713 25.7551 2.90329C23.3848 1.41945 20.6762 0.562388 17.8838 0.412602C15.0913 0.262816 12.3066 0.825216 9.79118 2.04699C7.27573 3.26876 5.11207 5.10981 3.5034 7.39725C1.89472 9.68469 0.893818 12.3435 0.594676 15.1239C0.295533 17.9043 0.70797 20.7151 1.79325 23.2924C2.87854 25.8697 4.60105 28.1289 6.79905 29.8577L11.9011 23.3714C10.8024 22.5072 9.94142 21.3779 9.39895 20.0897C8.85647 18.8014 8.65032 17.3965 8.79984 16.0067C8.94937 14.6169 9.44967 13.2879 10.2538 12.1445C11.0578 11.0012 12.1393 10.0809 13.3967 9.47022C14.654 8.85952 16.046 8.5784 17.4418 8.65327C18.8376 8.72814 20.1914 9.15654 21.3762 9.89824C22.561 10.6399 23.5379 11.6706 24.215 12.8934C24.8922 14.1162 25.2475 15.4911 25.2475 16.8889H33.5Z"/>
</mask>
<path d="M33.5 16.8889C33.5 14.0925 32.7892 11.3419 31.4345 8.89547C30.0797 6.44907 28.1254 4.38713 25.7551 2.90329C23.3848 1.41945 20.6762 0.562388 17.8838 0.412602C15.0913 0.262816 12.3066 0.825216 9.79118 2.04699C7.27573 3.26876 5.11207 5.10981 3.5034 7.39725C1.89472 9.68469 0.893818 12.3435 0.594676 15.1239C0.295533 17.9043 0.70797 20.7151 1.79325 23.2924C2.87854 25.8697 4.60105 28.1289 6.79905 29.8577L11.9011 23.3714C10.8024 22.5072 9.94142 21.3779 9.39895 20.0897C8.85647 18.8014 8.65032 17.3965 8.79984 16.0067C8.94937 14.6169 9.44967 13.2879 10.2538 12.1445C11.0578 11.0012 12.1393 10.0809 13.3967 9.47022C14.654 8.85952 16.046 8.5784 17.4418 8.65327C18.8376 8.72814 20.1914 9.15654 21.3762 9.89824C22.561 10.6399 23.5379 11.6706 24.215 12.8934C24.8922 14.1162 25.2475 15.4911 25.2475 16.8889H33.5Z" stroke="#994E4E" stroke-width="24.2" mask="url(#path-2-inside-1_25_5520)"/>
</svg>
