<svg width="24" height="24" viewBox="0 0 24 24" fill="none" xmlns="http://www.w3.org/2000/svg">
<path fill-rule="evenodd" clip-rule="evenodd" d="M19.6342 4.53557C17.6652 2.56432 15.0468 1.47826 12.257 1.47712C6.50877 1.47712 1.8303 6.1552 1.82806 11.9052C1.82726 13.7433 2.30749 15.5374 3.22015 17.1189L1.7406 22.5231L7.26911 21.0728C8.79235 21.9037 10.5074 22.3416 12.2528 22.3422H12.2571C12.2567 22.3422 12.2574 22.3422 12.2571 22.3422C18.0047 22.3422 22.6835 17.6637 22.686 11.9135C22.687 9.12691 21.6032 6.50673 19.6342 4.53557ZM12.257 20.5809H12.2535C10.6982 20.5803 9.17263 20.1624 7.84176 19.3727L7.52527 19.1849L4.24457 20.0454L5.12028 16.8468L4.91416 16.5188C4.04649 15.1387 3.58824 13.5436 3.58891 11.9058C3.59078 7.12662 7.47934 3.23848 12.2605 3.23848C14.5758 3.2392 16.7521 4.14204 18.3887 5.78046C20.0252 7.41889 20.926 9.59672 20.9251 11.9128C20.9231 16.6924 17.0347 20.5809 12.257 20.5809Z" fill="white"/>
<path fill-rule="evenodd" clip-rule="evenodd" d="M17.0117 14.089C16.7511 13.9586 15.4699 13.3283 15.2311 13.2413C14.9922 13.1543 14.8185 13.1108 14.6448 13.3717C14.4711 13.6325 13.9717 14.2195 13.8197 14.3935C13.6677 14.5673 13.5156 14.5892 13.2551 14.4586C12.9946 14.3282 12.1549 14.0531 11.1596 13.1653C10.3849 12.4743 9.86199 11.621 9.70993 11.3601C9.55795 11.0993 9.69376 10.9582 9.82423 10.8283C9.94145 10.7115 10.0848 10.5239 10.2151 10.3718C10.3454 10.2197 10.3888 10.1109 10.4757 9.93708C10.5626 9.76313 10.5192 9.61094 10.454 9.48055C10.3888 9.35013 9.8677 8.06751 9.65058 7.54567C9.439 7.03763 9.2242 7.10646 9.06422 7.09838C8.91245 7.0908 8.73851 7.08923 8.56481 7.08923C8.39112 7.08923 8.10876 7.15447 7.86996 7.41528C7.63111 7.67618 6.95789 8.30665 6.95789 9.58914C6.95789 10.8718 7.89163 12.1109 8.02193 12.2848C8.15219 12.4587 9.85941 15.0907 12.4734 16.2194C13.0951 16.4879 13.5805 16.6483 13.9589 16.7683C14.5832 16.9667 15.1512 16.9387 15.6002 16.8716C16.1009 16.7968 17.142 16.2412 17.3591 15.6326C17.5763 15.0238 17.5763 14.502 17.5111 14.3934C17.446 14.2847 17.2722 14.2195 17.0117 14.089Z" fill="white"/>
</svg>
