<svg width="24" height="24" viewBox="0 0 24 24" fill="none" xmlns="http://www.w3.org/2000/svg">
<path d="M21.5063 7.19146C21.3988 6.76169 21.1797 6.36792 20.8712 6.04992C20.5628 5.73191 20.1758 5.50094 19.7495 5.38034C18.192 5 11.9617 5 11.9617 5C11.9617 5 5.73144 5 4.17387 5.41656C3.74757 5.53717 3.36065 5.76814 3.05219 6.08614C2.74373 6.40414 2.52465 6.79791 2.41708 7.22768C2.13202 8.80839 1.99258 10.4119 2.00052 12.0181C1.99036 13.6364 2.1298 15.2521 2.41708 16.8448C2.53567 17.2612 2.75966 17.64 3.0674 17.9445C3.37515 18.2491 3.75624 18.4692 4.17387 18.5834C5.73144 19 11.9617 19 11.9617 19C11.9617 19 18.192 19 19.7495 18.5834C20.1758 18.4628 20.5628 18.2319 20.8712 17.9139C21.1797 17.5959 21.3988 17.2021 21.5063 16.7723C21.7892 15.2035 21.9286 13.6122 21.9229 12.0181C21.9331 10.3998 21.7936 8.78407 21.5063 7.19146Z" stroke="white" stroke-width="1.81113" stroke-linecap="round" stroke-linejoin="round"/>
<path d="M9.92419 14.9793L15.1312 12.0181L9.92419 9.05692V14.9793Z" stroke="white" stroke-width="1.81113" stroke-linecap="round" stroke-linejoin="round"/>
</svg>
