<svg width="692" height="532" viewBox="0 0 692 532" fill="none" xmlns="http://www.w3.org/2000/svg">
<path opacity="0.3" d="M177 100C171.108 100 167.039 98.3176 161.53 96.2642C150.724 92.2367 138.671 85.992 129.39 79.5566C121.864 74.3375 118.192 65.698 111.85 59.4245C105.892 53.5312 102.536 46.0443 96.5974 40.2264C90.9399 34.6835 85.8112 29.078 79.7107 23.934C76.3445 21.0956 73.3103 18.0128 69.9055 15.217C67.8533 13.5319 64.6184 13.107 62.2792 11.4811C51.5261 4.00683 39.1011 1 26 1" stroke="white" stroke-linecap="round" stroke-dasharray="16 16"/>
<path opacity="0.3" d="M506 100C511.892 100 515.961 98.3176 521.47 96.2642C532.276 92.2367 544.329 85.992 553.61 79.5566C561.136 74.3375 564.808 65.698 571.15 59.4245C577.108 53.5312 580.464 46.0443 586.403 40.2264C592.06 34.6835 597.189 29.078 603.289 23.934C606.655 21.0956 609.69 18.0128 613.095 15.217C615.147 13.5319 618.382 13.107 620.721 11.4811C631.474 4.00683 643.899 1 657 1" stroke="white" stroke-linecap="round" stroke-dasharray="16 16"/>
<path opacity="0.3" d="M373.169 115C370.34 117.829 369.176 120.573 367.495 124.183C364.198 131.262 361.343 139.983 359.909 147.461C358.747 153.526 361.042 159.347 360.944 165.339C360.851 170.968 362.757 176.096 362.638 181.679C362.525 186.999 362.696 192.095 362.183 197.44C361.9 200.389 361.891 203.294 361.569 206.242C361.375 208.019 360.021 209.771 359.662 211.658C358.009 220.332 353.455 227.71 347.163 234" stroke="white" stroke-linecap="round" stroke-dasharray="16 16"/>
<path opacity="0.3" d="M673.247 389C668.382 388.719 665.131 386.659 660.714 384.118C652.051 379.136 642.501 371.635 635.252 364.055C629.373 357.908 626.896 348.151 622.062 340.891C617.521 334.071 615.231 325.608 610.701 318.873C606.386 312.455 602.512 305.994 597.805 299.998C595.208 296.69 592.901 293.126 590.269 289.863C588.683 287.896 586.04 287.27 584.213 285.356C575.814 276.553 565.749 272.626 554.933 272" stroke="white" stroke-linecap="round" stroke-dasharray="16 16"/>
<path opacity="0.3" d="M181.1 304.246C177.393 310.456 173.389 313.882 168.159 318.637C157.902 327.962 144.956 337.466 133.59 343.951C124.373 349.209 114.642 348.652 105.263 352.122C96.4534 355.382 87.911 355.083 79.1781 358.361C70.858 361.484 62.8168 364.017 54.5606 367.811C50.005 369.905 45.4483 371.523 40.9049 373.679C38.1666 374.979 35.7666 378.171 32.8985 379.803C19.7139 387.307 9.31505 398.862 1.07364 412.671" stroke="white" stroke-linecap="round" stroke-dasharray="16 16"/>
<path opacity="0.3" d="M34.0822 418.804C39.9701 418.539 44.1115 420.036 49.7093 421.839C60.6881 425.376 73.0136 431.071 82.5772 437.081C90.3331 441.956 94.3915 450.421 101.012 456.403C107.231 462.022 110.922 469.35 117.118 474.894C123.021 480.176 128.398 485.545 134.726 490.409C138.218 493.093 141.389 496.036 144.917 498.675C147.043 500.266 150.295 500.545 152.706 502.064C163.788 509.046 176.339 511.49 189.43 510.899" stroke="white" stroke-linecap="round" stroke-dasharray="16 16"/>
<path opacity="0.3" d="M539.212 512.009C540.169 507.273 542.48 504.335 545.388 500.313C551.092 492.425 559.173 483.972 566.99 477.787C573.33 472.77 582.397 471.529 589.578 467.674C596.324 464.051 604.21 462.836 610.879 459.215C617.232 455.765 623.561 452.752 629.596 448.867C632.925 446.723 636.441 444.894 639.735 442.711C641.721 441.395 642.663 438.879 644.637 437.321C653.712 430.157 658.678 420.764 660.807 410.233" stroke="white" stroke-linecap="round" stroke-dasharray="16 16"/>
<path opacity="0.3" d="M542.329 235.779C544.551 230.322 547.645 227.188 551.625 222.86C559.432 214.371 569.763 205.562 579.226 199.394C586.9 194.391 596.289 194.248 604.493 190.74C612.2 187.444 620.402 187.159 628.031 183.853C635.3 180.703 642.428 178.067 649.494 174.357C653.393 172.31 657.394 170.662 661.268 168.563C663.603 167.298 665.217 164.462 667.606 162.908C678.586 155.768 686.058 145.394 691 133.26" stroke="white" stroke-linecap="round" stroke-dasharray="16 16"/>
<path opacity="0.3" d="M12.0765 175.216C17.9669 175.012 22.0923 176.553 27.6707 178.415C38.6117 182.067 50.8766 187.891 60.3763 194.002C68.0805 198.958 72.0495 207.466 78.6063 213.517C84.7659 219.201 88.3797 226.567 94.5169 232.176C100.364 237.521 105.685 242.946 111.961 247.876C115.424 250.596 118.564 253.572 122.064 256.249C124.174 257.862 127.422 258.175 129.817 259.719C140.824 266.818 153.349 269.393 166.446 268.941" stroke="white" stroke-linecap="round" stroke-dasharray="16 16"/>
</svg>
