<svg width="667" height="842" viewBox="0 0 667 842" fill="none" xmlns="http://www.w3.org/2000/svg">
<path d="M89.9067 791.677L87.6952 798.714L89.9067 800.473L88.2481 801.353L88.801 810.148L87.6952 815.426L86.0366 818.065L85.4837 817.185L84.378 822.463L73.3205 813.667L71.6619 818.065L69.4504 817.185L70.5562 823.342L68.8976 829.499L69.4504 833.017M89.9067 791.677L100.964 803.112L98.1998 807.51L100.964 812.787L111.469 814.546L114.786 818.065L115.892 815.426H117.55L116.998 813.667H119.762L120.315 807.51L121.42 806.63L123.079 810.148L125.843 811.908L128.608 809.269L131.372 814.546H133.031L134.137 802.232L138.56 796.075V790.797L145.747 793.436L146.853 791.677L145.747 789.038L147.958 775.845L146.853 767.049L147.405 762.651L149.064 760.892L151.276 761.771V763.531L156.251 764.41V770.567L161.227 769.688L162.333 764.41L171.732 769.688L173.943 774.085L178.919 775.845L182.789 781.122L186.107 782.002L187.212 779.363L190.53 778.483L193.294 783.761L196.611 785.52L196.058 787.279L198.27 790.797L203.798 794.316L214.856 796.075L215.962 794.316L217.62 796.955L221.49 787.279L224.808 788.159L225.913 786.399L228.125 789.918L231.995 790.797L232.548 796.955L234.759 796.075L238.629 799.593L243.605 797.834L244.711 809.269L245.817 810.148M89.9067 791.677L87.6952 790.797L88.2481 788.159L84.378 777.604L81.0608 778.483L79.4021 769.688L78.2964 771.447L76.6378 767.928L73.8734 767.049L72.2148 770.567L67.7918 765.29L67.239 757.373L62.2631 749.457H59.4988L56.7344 747.698L56.1815 742.421L48.9942 731.866V726.588L44.5712 721.31L41.2539 720.431L41.8068 723.07L36.8309 721.31L35.1723 715.153L30.1965 710.756L29.6436 699.321L26.8793 697.562L25.2206 687.887H23.562V679.091L19.6919 677.332L17.4804 671.175L20.7976 666.777V661.499L22.4563 660.619L24.6678 650.064L20.7976 648.305L21.9034 643.028L20.2448 641.269L19.139 642.148V640.389L13.6103 635.991L13.0574 634.232L10.2931 633.352L10.846 630.714L7.52869 627.195L8.08159 619.279L4.76437 611.363L2 609.604L4.21147 606.086L2 600.808L6.42298 599.929L7.52869 606.086L9.74021 606.965L10.2931 609.604H9.18735L11.9517 613.122V618.4L14.1632 619.279L13.6103 610.483H15.2689L17.4804 599.929L21.9034 596.41L23.0091 591.133L31.3023 588.494L32.9609 591.133L34.0666 586.735L37.3838 584.096L37.9367 586.735L38.4896 583.216L45.1241 590.253L48.4413 584.975L48.9942 577.059L51.7585 577.939L53.97 575.3L57.2872 577.059L60.0516 566.504L63.9217 567.384V563.866L66.6861 562.106L66.1332 558.588L71.1091 564.745L73.8734 560.347L73.3205 558.588L74.9792 555.07L73.8734 552.431L75.5321 550.672L77.7435 551.551L81.0608 548.913L83.2723 550.672L85.4837 548.033L90.4596 548.913L92.6711 547.154V540.997H94.8826L97.0941 537.478L99.3056 539.237L101.517 538.358L109.257 532.201L109.81 528.682L111.469 527.803L113.127 529.562L117.55 527.803V522.525L113.68 520.766L114.233 516.368H110.916L113.127 507.572L118.656 511.97L120.868 510.211L122.526 511.97L123.079 508.452V511.97L124.738 513.729H126.396L128.055 517.248L126.396 525.164L130.819 524.284L129.161 533.08L133.584 534.84L134.137 537.478H137.454L139.112 531.321M245.817 810.148L246.37 818.944L241.394 830.379M245.817 810.148L250.793 792.557L258.533 779.363L265.167 782.881L266.826 786.399L271.802 782.002L275.119 786.399L280.648 781.122H283.965L287.835 773.206L293.364 772.326L295.575 760.892L302.21 760.012L303.868 756.494L306.633 733.625L308.291 728.347L318.243 723.07L319.902 718.672L319.349 715.153L323.219 713.394L326.536 706.358L327.089 701.96L333.171 701.08L337.041 703.719L342.017 700.201M139.112 531.321L142.983 522.525L146.853 504.934L150.17 479.426L146.3 468.871L147.405 467.112L146.3 464.473L146.853 458.316L145.747 454.798L134.689 446.881L133.584 442.483L136.348 437.206L135.795 430.169L131.372 421.373L130.266 412.578L127.502 409.059L128.608 404.661L132.478 398.504L133.584 385.311L135.795 377.394L131.925 371.237L133.584 364.201L132.478 360.682L133.584 355.405L126.949 348.368L124.738 334.295L125.291 329.897L129.714 321.981L128.055 316.703L130.266 311.426L128.055 306.148L121.42 299.112L115.339 287.677L108.704 278.881L104.281 276.243L105.94 269.206L104.834 259.53L115.339 247.216L117.55 235.782L116.998 227.866L120.315 219.07L119.209 217.311L116.445 193.562L113.127 182.127L113.68 171.572L112.022 169.813L111.469 161.017M139.112 531.321H148.511L147.405 524.284L149.064 519.007L146.3 515.488L147.405 512.85L151.276 511.97L154.593 515.488L156.804 511.97L157.357 516.368L160.122 514.609L161.78 517.248L162.333 528.682L166.756 534.84V542.756L170.073 539.237L183.895 548.033L189.424 545.394L191.635 555.949L198.27 555.07L199.376 561.227L197.717 563.866L199.928 565.625L203.798 557.708L207.669 562.106L209.327 561.227L210.433 555.949L215.962 557.708L220.938 568.263L218.726 569.143V574.42L216.515 577.939L214.303 577.059L208.221 586.735L209.327 589.373H210.986L212.644 594.651L216.515 592.892L217.62 599.049L220.385 599.929L226.466 613.122L227.572 622.798L233.101 628.075L238.077 622.798L240.841 614.881L242.5 615.761L243.605 612.243L246.37 613.122L247.475 609.604L248.581 613.122L250.24 611.363L249.134 602.567L245.817 600.808L244.158 592.012L241.947 589.373L243.605 584.096L247.475 588.494L248.581 586.735L254.11 590.253L255.769 592.892L259.086 592.012V594.651L262.956 600.808L266.273 599.049V607.845L268.485 605.206L270.696 608.724L273.46 606.086L278.436 605.206L279.542 606.965L283.412 603.447V599.049L284.518 599.929L286.729 603.447L285.071 608.724L287.282 611.363L286.729 614.881L278.436 620.159L281.754 626.316H283.965L285.624 628.075L287.835 637.75L290.6 638.63L292.258 643.907L295.022 643.028L299.445 637.75L301.657 639.509L301.104 635.991H299.445L300.551 632.473L303.868 635.112L304.974 641.269L306.633 643.028L309.397 640.389L309.95 643.907L313.267 644.787L314.926 650.944L316.585 649.185L316.032 646.546L321.007 648.305L325.43 652.703L325.983 650.064H328.195L327.642 656.222L329.853 657.981L327.642 661.499L330.406 674.693L334.829 677.332L336.488 680.85H339.805L342.017 700.201M109.257 129.353L107.046 131.112L108.704 133.75V138.148M342.017 700.201L348.098 701.96L348.651 715.153H351.416L353.074 712.515L356.944 714.274L359.156 713.394L358.603 710.756L360.814 708.117L362.473 698.441L367.449 697.562L368.002 694.044L372.978 688.766L373.53 691.405L376.295 693.164L378.506 708.117L381.823 707.237L381.271 713.394L385.694 716.033L389.011 713.394L389.564 727.468L390.669 730.106L389.564 730.986L387.905 738.023L393.434 739.782L396.198 734.504L398.963 735.384L403.938 741.541L407.256 724.829L407.809 726.588L411.126 720.431L415.549 721.31L416.102 714.274L418.866 713.394L419.419 716.033L421.63 715.153V712.515H423.289L428.818 717.792L430.476 712.515L432.135 714.274L436.005 712.515L438.216 718.672L440.428 719.551L439.875 721.31L442.087 723.07L443.192 721.31L443.745 724.829L445.404 723.949L446.51 727.468L449.274 726.588L452.038 718.672H454.803L452.591 712.515L456.461 709.876L459.778 714.274L464.202 707.237L471.942 713.394L481.893 708.996L482.999 712.515L486.316 713.394L489.081 720.431L492.398 716.033L495.715 721.31H498.48L502.35 730.106L501.797 736.264L503.455 738.023L507.878 738.902L510.09 742.421L511.749 741.541V745.059L516.172 746.819L518.936 745.939L521.7 751.216L528.888 752.976M504.561 840.054L501.244 837.415L496.821 840.934M483.552 837.415L480.788 823.342H477.47L475.812 818.065L472.495 814.546L470.836 817.185H466.413L465.307 821.583L461.437 819.824L455.908 825.981L453.697 821.583H447.615L445.957 817.185L443.192 818.065L442.64 814.546L432.688 817.185L429.371 819.824L427.159 818.944L426.606 820.703H424.948L425.5 825.981L420.525 833.897M528.888 752.976L527.782 762.651L524.465 764.41L521.7 772.326V777.604L519.489 780.242L520.042 788.159L517.83 792.557L518.383 796.955L517.277 802.232L508.984 813.667L507.326 833.017L508.431 836.536L510.643 833.017L513.96 835.656L512.301 838.295M528.888 752.976L530.546 752.096L534.969 759.133L538.839 757.373L543.262 763.531L545.474 762.651L543.815 755.614L545.474 752.096L542.157 750.337L539.945 744.18H537.734L538.286 741.541L536.628 743.3L536.075 742.421L538.286 737.143L536.628 736.264L537.734 733.625V719.551L535.522 702.839L532.758 698.441L564.824 628.075L579.752 606.965L583.069 600.808L585.281 599.049L586.386 592.892L591.362 590.253L600.761 588.494L604.631 577.059L606.29 565.625L605.737 556.829L604.078 555.07L604.631 550.672L601.867 549.792L602.42 544.515L600.208 543.635L599.102 540.997L600.761 534.84L606.29 535.719L608.501 531.321L603.525 528.682L599.655 520.766L599.102 515.488L596.891 513.729L597.997 512.85L596.338 504.934H594.679L594.127 502.295L594.679 495.258L588.045 487.342L585.833 477.667H583.622L582.516 472.389L585.281 467.112L585.833 460.955L585.281 457.436H583.622L584.175 453.038L581.963 449.52M381.823 57.2268V58.1063M390.117 58.986L431.582 69.541L472.495 76.5776L540.498 70.4205M540.498 70.4205L537.734 58.986L535.522 58.1063L534.416 46.6718L536.075 42.2739L534.969 39.6351L538.286 33.4781V29.9597L536.628 25.5618L537.734 19.4048L542.709 14.1273L544.921 7.97031L542.709 0.933594M540.498 70.4205L543.262 63.3838L549.897 66.9022L551.002 67.7817L550.45 70.4205L553.767 73.0593L552.661 76.5776L555.426 79.2164L558.19 76.5776L562.613 84.4938L567.589 85.3734L569.8 88.8917L572.012 95.9283L575.329 98.5671L576.988 107.363V115.279L574.776 120.557L576.435 125.834M581.963 449.52L581.411 446.881L579.199 446.002L579.752 443.363L577.54 431.928L579.199 424.892L576.988 421.373L583.069 411.698L580.858 406.421L583.069 400.263L581.411 396.745L583.069 394.986L582.516 392.347L585.281 387.07L583.622 383.551V376.515L581.963 372.117H578.093L575.329 365.96L575.882 362.441L572.012 363.321L570.906 359.803L560.954 356.284V350.127L559.848 349.248L568.694 324.619L574.223 314.065L583.069 306.148H587.492L597.997 292.954L596.891 262.169L598.55 259.53L596.891 248.975L594.679 243.698L596.891 233.143L594.127 228.745L593.574 223.468L591.915 221.708L584.175 184.766L579.752 154.86L578.093 151.342L578.646 139.907L576.988 138.148L576.435 125.834M581.963 449.52H584.728L582.516 444.242L584.175 439.844L581.411 434.567L584.728 431.049L590.256 429.29V432.808L596.891 433.687L595.232 438.965L600.761 440.724L606.843 429.29L617.347 417.855L615.689 411.698L619.559 402.023L632.275 398.504L638.909 401.143L641.674 397.625L643.332 399.384L647.202 396.745L648.308 400.263L656.601 392.347L664.341 389.708M576.435 125.834L581.411 130.232L586.386 128.473L589.151 130.232L589.704 133.75L591.915 131.991L590.809 128.473L593.021 125.834L595.232 127.593L596.891 124.075L599.102 125.834L600.208 130.232L611.266 124.075L611.818 126.714L613.477 125.834L619.006 133.75H622.876L627.299 124.075L632.828 118.797L636.145 117.918L635.592 124.955L638.356 124.075L638.909 119.677L642.226 120.557L642.779 116.159L644.991 115.279L642.226 113.52L640.015 105.604V103.845L642.779 102.085L642.226 100.326L649.414 96.808L651.072 100.326L654.943 101.206L661.577 90.6509L662.13 84.4938L663.789 85.3734L664.894 81.855L666 84.4938" stroke="white" stroke-width="1.64688"/>
</svg>
